<svg xmlns="http://www.w3.org/2000/svg" viewBox="0 0 24 24" width="24" height="24">
  <circle fill="#FF4500" cx="12" cy="12" r="10"/>
  <path fill="white" d="M19.5 12c0-.56-.44-1-1-1-.27 0-.51.11-.69.28-.69-.47-1.64-.77-2.69-.81l.46-2.14 1.49.32c.02.4.35.72.77.72.43 0 .78-.35.78-.78s-.35-.78-.78-.78c-.31 0-.57.18-.71.44l-1.67-.36c-.07-.02-.14.03-.16.1l-.51 2.4c-1.07.03-2.04.34-2.74.82-.18-.18-.43-.29-.7-.29-.56 0-1 .44-1 1 0 .4.24.74.58.91-.03.16-.05.32-.05.49 0 1.67 1.94 3.02 4.33 3.02 2.4 0 4.33-1.35 4.33-3.02 0-.17-.02-.33-.05-.49.35-.17.58-.51.58-.91zm-7 1.25c-.41 0-.75-.34-.75-.75s.34-.75.75-.75.75.34.75.75-.34.75-.75.75zm3.5 1.75c-.5.5-1.31.75-2 .75-.69 0-1.5-.25-2-.75-.1-.1-.1-.25 0-.35.1-.1.25-.1.35 0 .39.39 1.09.6 1.65.6.56 0 1.26-.21 1.65-.6.1-.1.25-.1.35 0 .1.1.1.25 0 .35zm-.25-1c-.41 0-.75-.34-.75-.75s.34-.75.75-.75.75.34.75.75-.34.75-.75.75z"/>
</svg>
